# xmcd
#
# Track frame offsets:
#	150
#	14749
#	32454
#	51556
#	66596
#	83895
#	98131
#	113112
#	128798
#	149850
#	166418
#	182101
#	197603
#	228527
#
# Disc length: 3443 seconds
#
# Revision: 6
# Processed by: cddbd v1.5.2PL0 Copyright (c) Steve Scherf et al.
# Submitted via: EasyCDDAExtractor 15.3.0.1
#
DISCID=d10d710e
DTITLE=RBD - Empezar Desde Cero
DYEAR=2007
DGENRE=Latin
TTITLE0=Empezar Desde Cero
TTITLE1=Y No Puedo Olvidarte
TTITLE2=Inalcanzable
TTITLE3=No Digas Nada
TTITLE4=El Mundo Detras
TTITLE5=Hoy Que Te Vas
TTITLE6=Llueve En Mi Corazon
TTITLE7=Fui La Niña
TTITLE8=A La Orilla
TTITLE9=Amor Fugaz
TTITLE10=Sueles Volver
TTITLE11=Si No Estas Aqui
TTITLE12=Extraña Sensacion
TTITLE13=Data Track
EXTD=YEAR: 2007
EXTT0=
EXTT1=
EXTT2=
EXTT3=
EXTT4=
EXTT5=
EXTT6=
EXTT7=
EXTT8=
EXTT9=
EXTT10=
EXTT11=
EXTT12=
EXTT13=
PLAYORDER=
